<?xml version="1.0" standalone="no"?>
<!DOCTYPE svg PUBLIC "-//W3C//DTD SVG 20010904//EN"
 "http://www.w3.org/TR/2001/REC-SVG-20010904/DTD/svg10.dtd">
<svg version="1.0" xmlns="http://www.w3.org/2000/svg"
 width="1024.000000pt" height="1024.000000pt" viewBox="0 0 1024.000000 1024.000000"
 preserveAspectRatio="xMidYMid meet">
<metadata>
Created by potrace 1.11, written by Peter Selinger 2001-2013
</metadata>
<g transform="translate(0.000000,1024.000000) scale(0.100000,-0.100000)"
fill="#000000" stroke="none">
<path d="M0 5120 l0 -5120 5120 0 5120 0 0 5120 0 5120 -5120 0 -5120 0 0
-5120z m1930 -90 l0 -3630 -150 0 -150 0 0 3630 0 3630 150 0 150 0 0 -3630z
m1710 3563 c0 -35 -3 -63 -7 -63 -134 -4 -299 -22 -328 -36 -78 -37 -85 -89
-85 -655 l0 -456 137 -6 c177 -9 1239 -9 1416 0 l137 6 0 436 c0 588 -6 631
-92 674 -31 15 -185 33 -315 37 -9 0 -13 19 -13 63 l0 62 625 0 625 0 0 -62
c0 -35 -3 -63 -7 -63 -5 0 -73 -7 -152 -15 -205 -21 -229 -36 -251 -158 -7
-35 -10 -470 -8 -1218 3 -1104 4 -1166 21 -1206 29 -66 52 -75 212 -86 201
-13 185 -5 185 -83 l0 -66 -162 8 c-212 11 -842 11 -980 1 l-108 -8 0 65 c0
36 1 66 3 67 1 1 72 6 158 13 179 13 199 21 232 94 22 46 22 54 22 642 l0 595
-840 0 -840 0 -3 -550 c-3 -652 1 -697 71 -749 23 -17 51 -22 165 -29 197 -12
182 -5 182 -83 l0 -65 -167 7 c-223 11 -807 11 -960 1 l-123 -8 0 65 c0 78
-12 72 170 81 136 8 176 19 207 59 42 53 44 104 41 1321 -3 1109 -4 1162 -22
1203 -28 66 -66 80 -238 92 -79 5 -146 10 -150 10 -5 0 -8 28 -8 63 l0 62 625
0 625 0 0 -62z m4113 48 c290 -49 494 -193 582 -409 68 -168 48 -417 -50 -612
-60 -120 -182 -259 -296 -337 -114 -78 -291 -149 -435 -172 -126 -21 -403 -16
-442 8 -12 7 -54 142 -47 150 2 2 37 -5 77 -15 105 -26 258 -24 365 5 206 57
360 216 419 432 25 89 25 299 0 389 -60 220 -226 359 -477 400 -134 21 -409
11 -556 -22 l-53 -11 0 -1211 c0 -1318 0 -1306 54 -1353 32 -27 54 -31 221
-41 l130 -7 3 -68 3 -69 -153 8 c-201 11 -843 11 -981 1 l-108 -8 3 68 3 68
145 8 c222 13 244 31 260 208 12 138 12 2115 0 2243 -12 122 -31 163 -89 193
-40 21 -66 25 -243 39 l-78 6 0 61 0 62 838 -1 c583 -1 858 -5 905 -13z
m-3568 -4171 c724 -65 1193 -459 1327 -1115 19 -94 22 -142 22 -325 0 -195 -2
-226 -27 -341 -49 -229 -121 -403 -245 -589 -91 -138 -253 -305 -387 -401
-178 -127 -415 -228 -655 -281 -93 -20 -132 -23 -340 -23 -262 0 -351 13 -535
80 -268 97 -508 278 -668 502 -205 288 -312 699 -279 1069 16 184 37 288 83
426 129 387 363 652 734 833 285 139 621 196 970 165z"/>
<path d="M3715 4280 c-108 -17 -238 -60 -340 -113 -85 -44 -115 -67 -200 -152
-168 -168 -256 -354 -302 -636 -21 -129 -23 -471 -4 -609 102 -744 544 -1200
1165 -1200 479 0 807 245 963 719 55 169 75 305 80 552 4 168 2 245 -12 350
-74 580 -351 945 -810 1065 -87 23 -124 27 -290 30 -104 1 -217 -1 -250 -6z"/>
</g>
</svg>
